<?xml version="1.0" standalone="no"?>
<!DOCTYPE svg PUBLIC "-//W3C//DTD SVG 20010904//EN"
 "http://www.w3.org/TR/2001/REC-SVG-20010904/DTD/svg10.dtd">
<svg version="1.0" xmlns="http://www.w3.org/2000/svg"
 width="342.000000pt" height="342.000000pt" viewBox="0 0 342.000000 342.000000"
 preserveAspectRatio="xMidYMid meet">
<metadata>
Created by potrace 1.11, written by Peter Selinger 2001-2013
</metadata>
<g transform="translate(0.000000,342.000000) scale(0.100000,-0.100000)"
fill="#000000" stroke="none">
<path d="M1631 3404 c-175 -47 -318 -193 -360 -369 -13 -53 -16 -164 -6 -211
61 -276 332 -450 604 -388 261 59 428 321 374 585 -34 170 -153 305 -326 371
-67 26 -211 32 -286 12z"/>
<path d="M259 2409 c-2 -68 0 -1811 2 -1813 2 -2 54 -6 114 -10 61 -3 126 -8
145 -11 177 -27 188 -29 288 -54 193 -50 418 -145 592 -251 73 -44 224 -151
240 -169 3 -3 30 -27 60 -53 l56 -46 81 68 c78 65 248 190 258 190 3 0 24 12
48 27 160 101 482 225 667 258 39 7 50 9 100 19 48 9 118 16 235 22 55 4 102
8 104 10 3 2 5 414 5 915 l1 912 -120 -7 c-66 -3 -151 -11 -190 -17 -38 -6
-80 -12 -93 -14 -125 -17 -416 -115 -565 -190 -181 -91 -322 -185 -497 -333
l-36 -30 -44 40 c-301 267 -680 448 -1088 518 -97 17 -118 19 -244 26 -97 6
-118 4 -119 -7z"/>
</g>
</svg>
